<?xml version="1.0" standalone="no"?>
<!DOCTYPE svg PUBLIC "-//W3C//DTD SVG 1.1//EN" "http://www.w3.org/Graphics/SVG/1.1/DTD/svg11.dtd" >
<svg xmlns="http://www.w3.org/2000/svg" xmlns:xlink="http://www.w3.org/1999/xlink" version="1.1">
<metadata></metadata>
<defs>
<font id="showa_source_curryregular" horiz-adv-x="1024" >
<font-face units-per-em="2048" ascent="1760" descent="-288" />
<missing-glyph horiz-adv-x="648" />
<glyph horiz-adv-x="0" />
<glyph unicode="&#xd;" horiz-adv-x="682" />
<glyph unicode=" "  horiz-adv-x="648" />
<glyph unicode="&#x09;" horiz-adv-x="648" />
<glyph unicode="&#xa0;" horiz-adv-x="648" />
<glyph unicode="!" horiz-adv-x="924" d="M120 1196q18 210 124 232h364q108 -4 152 -36t36 -160q6 -142 -144 -660q-10 -62 -42 -100q-32 -26 -108 -28q-210 22 -230 128q-152 548 -152 624zM268 184q0 78 58 133t140 55t140 -55t58 -133t-58 -133t-140 -55t-140 55t-58 133z" />
<glyph unicode="&#x22;" horiz-adv-x="874" d="M82 1244q16 160 44 296q8 64 54 112q52 36 111 20t103 -66q28 -36 24 -116q-8 -132 -35 -246t-79 -170q-52 -20 -110 -7t-84 47q-38 48 -28 130zM462 1244q16 160 44 296q8 64 54 112q52 36 111 20t103 -66q28 -36 24 -116q-8 -132 -35 -246t-79 -170q-52 -20 -110 -7 t-84 47q-38 48 -28 130z" />
<glyph unicode="#" horiz-adv-x="1436" d="M82 404q22 180 128 198l52 -2l24 222q-78 8 -124 32q-26 34 -24 118q22 180 128 198l54 -2l10 90q14 100 50 152q36 22 120 12q176 -40 184 -146l-12 -118l190 -6l12 110q14 100 50 152q36 22 120 12q176 -40 184 -146l-14 -138q72 -8 116 -32q26 -34 24 -142 q-22 -156 -128 -174l-48 2l-22 -222q72 -8 118 -32q26 -34 24 -142q-22 -156 -128 -174l-50 2l-6 -58q-14 -100 -50 -152q-36 -22 -142 -10q-154 38 -162 144l8 86l-190 4l-8 -76q-14 -100 -50 -152q-36 -22 -142 -10q-154 38 -162 144l10 106q-74 8 -120 32q-26 34 -24 118 zM614 590l190 -6l24 222l-192 4z" />
<glyph unicode="$" horiz-adv-x="1356" d="M114 886q2 92 31 205t135 223q104 106 306 114l8 38q22 98 62 146q36 20 120 4q172 -54 172 -162l-6 -30q40 4 90 2q106 -6 182 -76q34 -40 24 -116q-8 -132 -35 -246t-79 -170q-52 -20 -169 -5t-157 49q-36 50 -26 122q-14 56 -56 76h-44q-78 -6 -98 -70 q-14 -62 54 -109t275 -117t263 -134q44 -56 22 -174q-20 -102 -75 -193t-127 -160t-154 -89q-60 -14 -132 -16l-6 -36q-22 -98 -62 -146q-36 -20 -120 -4q-172 54 -172 162l6 30q-126 14 -200 72q-38 56 -26 134q10 88 30 171t72 153q64 20 160 13t162 -59q18 -98 76 -128 h36q62 14 68 64t-42 72q-134 46 -270 84t-232 112q-68 74 -66 194z" />
<glyph unicode="%" horiz-adv-x="1492" d="M112 1018v82q4 86 22 157t67 121t143 52h122q72 -8 117 -55t55 -113t4 -126q-10 -110 -39 -184t-78 -124t-111 -54h-106q-86 0 -135 66t-61 178zM154 278l880 1058q68 74 126 98q42 0 124 -70q108 -118 54 -210l-880 -1058q-68 -74 -126 -98q-42 0 -108 56 q-124 132 -70 224zM310 1018q6 -64 38 -78h16q28 2 52 58t30 154v42q-2 60 -44 68h-22q-32 -4 -49 -42t-21 -124v-78zM844 246v82q4 86 22 157t67 121t143 52h122q72 -8 117 -55t55 -113t4 -126q-10 -110 -39 -184t-78 -124t-111 -54h-106q-86 0 -135 66t-61 178zM1042 246 q6 -64 38 -78h16q28 2 52 58t30 154v42q-2 60 -44 68h-22q-32 -4 -49 -42t-21 -124v-78z" />
<glyph unicode="&#x26;" horiz-adv-x="1368" d="M136 428q22 174 188 260q-94 56 -132 139t-32 195q18 122 94 218t180 143t182 45h276q134 -6 225 -88t120 -174t21 -188q-14 -158 -134 -258l-180 -116l64 -64q56 54 156 70l44 -18q70 -66 58 -186q-30 -58 -64 -90l70 -70q16 -50 -13 -110t-113 -80t-126 0l-74 62 q-108 -96 -223 -109t-227 -9q-168 8 -272 131t-88 297zM536 389q-6 -53 80 -53l56 36l-92 84q-38 -14 -44 -67zM632 952q10 -66 96 -120q48 8 104 72q22 50 -1 96t-62 60t-91 0q-40 -22 -46 -108z" />
<glyph unicode="'" horiz-adv-x="570" d="M82 1244q16 160 44 296q8 64 54 112q58 32 148 20t142 -70q28 -36 24 -116q-8 -132 -35 -246t-79 -170q-52 -20 -141 -5t-129 49q-38 48 -28 130z" />
<glyph unicode="(" horiz-adv-x="920" d="M108 424l4 388q8 188 47 342t145 263t312 115l88 -2q94 -6 128 -24q28 -34 26 -110q-24 -208 -132 -228l-30 -4q-70 -6 -108 -88t-48 -272l-4 -380q16 -134 80 -170l32 -2q70 -6 100 -20q28 -32 28 -108q-18 -210 -124 -232h-120q-184 2 -292 145t-132 387z" />
<glyph unicode=")" horiz-adv-x="920" d="M62 28q24 208 132 228l30 4q70 6 108 88t48 272l4 380q-16 134 -80 170l-32 2q-70 6 -100 20q-28 32 -28 108q18 210 124 232h120q184 -2 292 -145t132 -387l-4 -388q-8 -188 -47 -342t-145 -263t-312 -115l-88 2q-94 6 -128 24q-28 34 -26 110z" />
<glyph unicode="*" horiz-adv-x="1008" d="M142 840q8 42 70 98q148 106 232 40l80 -96l44 38q76 66 140 80q42 -8 96 -72q104 -148 38 -232l-92 -76l34 -42q66 -76 82 -138q-8 -42 -88 -114q-130 -90 -214 -24l-80 96l-44 -38q-76 -66 -140 -80q-42 8 -112 90q-88 130 -22 214l92 76l-34 42q-66 76 -82 138z" />
<glyph unicode="+" horiz-adv-x="1036" d="M102 628q22 180 128 198l124 -6l2 58q4 100 36 156q34 26 118 22q180 -24 196 -130l-6 -120l54 -2q100 -4 156 -34q26 -34 24 -142q-22 -156 -128 -174l-124 6l-2 -58q-4 -100 -36 -156q-34 -26 -142 -22q-156 24 -172 130l6 120l-54 2q-100 4 -156 34q-26 34 -24 118z " />
<glyph unicode="," horiz-adv-x="580" d="M71 19q21 87 21 165t58 133t140 55t140 -55t58 -133t-59 -138t-153 -98q-84 -36 -155 -26t-50 97z" />
<glyph unicode="-" horiz-adv-x="1036" d="M102 628q22 180 128 198l524 -22q100 -4 156 -34q26 -34 24 -142q-22 -156 -128 -174l-524 22q-100 4 -156 34q-26 34 -24 118z" />
<glyph unicode="." horiz-adv-x="580" d="M92 184q0 78 58 133t140 55t140 -55t58 -133t-58 -133t-140 -55t-140 55t-58 133z" />
<glyph unicode="/" horiz-adv-x="608" d="M10 136l234 1184q24 96 66 144q36 20 120 2q170 -58 168 -166l-234 -1184q-24 -96 -66 -144q-36 -20 -142 2q-148 54 -146 162z" />
<glyph unicode="0" horiz-adv-x="1324" d="M80 532v176q8 188 47 342t145 263t312 115h264q158 -18 255 -121t119 -245t10 -272q-22 -240 -85 -401t-170 -270t-241 -119h-232q-184 2 -292 145t-132 387zM508 532q16 -138 84 -172h36q62 6 114 128t62 336v88q-2 134 -96 148h-44q-70 -6 -108 -88t-48 -272v-168z" />
<glyph unicode="1" horiz-adv-x="1164" d="M88 132q18 210 124 232h164l28 564q16 86 64 140h-152q-110 0 -148 20q-28 32 -28 108q18 210 124 232h364q218 -6 236 -156l-60 -912q210 -4 244 -20q28 -32 28 -108q-18 -210 -124 -232h-652q-140 2 -184 24q-28 32 -28 108z" />
<glyph unicode="2" horiz-adv-x="1310" d="M80 456q8 98 84 148q44 30 254 119t350 197q26 30 14 75t-78 65h-60q-74 -2 -108 -48q-12 -98 -56 -180q-40 -26 -92 -26q-172 14 -248 78q-28 60 -26 158q2 72 30 195t70 183q76 20 164 12q96 -10 178 -90q70 78 192 86h92q158 -16 255 -120t116 -220t13 -200 q-2 -82 -72 -140q-148 -88 -298 -159t-296 -159q-54 -48 26 -70h52q70 4 104 50q82 128 124 140q36 8 124 -1t162 -57q50 -56 38 -146q-8 -74 -35 -166t-61 -150q-44 -34 -140 -26q-104 8 -192 78q-28 46 -24 90q-90 -166 -212 -172h-28q-204 -8 -310 124t-106 332z" />
<glyph unicode="3" horiz-adv-x="1328" d="M92 206q10 88 30 171t72 153q64 20 160 13t162 -59q18 -98 76 -128h20q58 6 68 152l-166 14q-28 26 -24 76q4 118 62 190q18 20 50 18l130 -14q50 6 42 119t-74 145h-48q-54 0 -76 -28q-8 -18 -24 -86t-54 -114q-34 -32 -102 -26q-172 14 -248 78q-28 60 -26 158 q2 72 30 195t70 183q60 18 173 15t193 -75q58 62 140 72h96q170 -4 273 -109t127 -229t16 -242q-10 -118 -74 -188t-126 -78q84 -42 111 -133t6 -199t-101 -181t-188 -69h-248q-84 20 -120 94q-74 -96 -132 -94q-162 2 -250 72q-38 56 -26 134z" />
<glyph unicode="4" horiz-adv-x="1340" d="M78 768q18 128 79 224t152 188t227 167t264 81h256q132 2 176 -20q28 -32 28 -108q-18 -210 -124 -240h-36q-14 -122 -28 -232l-4 -44q112 -8 152 -28q26 -36 20 -112q-26 -164 -132 -180l-66 4l-10 -108q86 -4 120 -20q28 -32 28 -108q-18 -210 -124 -232h-388 q-148 2 -192 24q-28 32 -28 108q18 210 124 232h32l8 124l-164 12q-224 6 -316 96q-56 58 -54 172zM516 820l110 -8l12 180h-18q-84 -82 -104 -172z" />
<glyph unicode="5" horiz-adv-x="1298" d="M92 210q10 88 30 171t72 153q64 20 160 13t162 -59q18 -98 76 -128h52q68 2 91 73t-39 103q-202 12 -340 31t-182 84t-50 147v410q8 92 71 154t141 66h276q138 -18 186 -146q0 64 38 114q58 32 164 26t182 -76q36 -30 24 -116q-8 -124 -37 -244t-77 -172q-52 -20 -169 -5 t-157 49q-36 50 -26 122q-10 76 -68 76h-66l-32 -14q-24 -50 -22 -154q6 -56 60 -76q330 -16 419 -66t114 -129t15 -177q-10 -108 -69 -209t-145 -163t-258 -68h-60q-92 20 -128 94l-38 -70q-36 -26 -94 -24q-162 6 -250 76q-38 56 -26 134z" />
<glyph unicode="6" horiz-adv-x="1320" d="M80 532v176q8 188 47 342t145 263t312 115h52q138 -14 186 -142q0 64 38 114q58 32 164 26t182 -76q34 -40 24 -116q-8 -132 -35 -246t-79 -170q-52 -20 -169 -5t-157 49q-36 50 -26 122q-14 56 -56 76h-44q-70 -6 -108 -88q-26 -54 -38 -156l292 -22q190 -6 277 -99 t81 -201q-16 -112 -75 -216t-147 -184t-202 -94h-240q-184 2 -292 145t-132 387zM512 502q20 -112 80 -142h48q54 22 57 64t-37 68z" />
<glyph unicode="7" horiz-adv-x="1280" d="M82 1038q2 72 30 195t70 183q60 18 173 15t193 -75q60 66 148 72h268q218 -6 236 -156v-304q-4 -70 -36 -116l-288 -492q86 -4 120 -20q28 -32 28 -108q-18 -210 -124 -232h-404q-144 2 -188 24q-28 32 -28 108q18 210 124 232h44q4 70 290 552q16 34 14 81t-52 59h-88 q-54 0 -76 -28q-8 -18 -24 -86t-54 -114q-34 -32 -102 -26q-172 14 -248 78q-28 60 -26 158z" />
<glyph unicode="8" horiz-adv-x="1320" d="M92 906q6 94 45 205t140 202t279 115h260q170 -4 273 -109t127 -229t16 -242q-10 -118 -74 -188t-126 -78q92 -42 119 -133t6 -199t-101 -181t-188 -69h-404q-194 0 -289 131t-77 297q14 130 122 230q-68 32 -100 100t-28 148zM528 428q12 -54 72 -68l88 -4q36 6 54 48 q12 26 0 44q-24 36 -82 40l-96 8q-40 -18 -36 -68zM535 903q-3 -49 37 -83l136 -14q100 4 96 114t-84 132h-76q-62 -14 -84 -57t-25 -92z" />
<glyph unicode="9" horiz-adv-x="1334" d="M76 802q4 132 43 267t125 222t191 112t191 25q142 -18 170 -140q0 62 38 114q58 32 157 25t179 -67q34 -48 24 -112l-88 -888q86 -4 120 -20q28 -32 28 -108q-18 -210 -124 -232h-400q-136 2 -180 24q-28 32 -28 108q18 210 124 232h28l8 88q-98 -74 -296 -68 q-128 10 -195 80t-91 159t-24 179zM510 716q14 -98 140 -68l44 20l38 364q-32 38 -82 32t-99 -92t-41 -256z" />
<glyph unicode=":" horiz-adv-x="628" d="M108 344q0 78 58 133t140 55t140 -55t58 -133t-58 -133t-140 -55t-140 55t-58 133zM124 920q0 78 58 133t140 55t140 -55t58 -133t-58 -133t-140 -55t-140 55t-58 133z" />
<glyph unicode=";" horiz-adv-x="628" d="M87 179q21 87 21 165t58 133t140 55t140 -55t58 -133t-59 -138t-153 -98q-84 -36 -155 -26t-50 97zM124 920q0 78 58 133t140 55t140 -55t58 -133t-58 -133t-140 -55t-140 55t-58 133z" />
<glyph unicode="&#x3c;" horiz-adv-x="1020" d="M104 639q4 89 54 135l446 274q86 52 150 58q40 -14 98 -104q68 -142 -10 -216l-248 -152l248 -152q78 -74 -4 -236q-44 -70 -84 -84q-64 6 -150 58l-446 274q-58 56 -54 145z" />
<glyph unicode="=" horiz-adv-x="1056" d="M102 392q22 180 128 198l524 -22q100 -4 156 -34q26 -34 24 -142q-22 -156 -128 -174l-524 22q-100 4 -156 34q-26 34 -24 118zM122 856q22 180 128 198l524 -22q100 -4 156 -34q26 -34 24 -142q-22 -156 -128 -174l-524 22q-100 4 -156 34q-26 34 -24 118z" />
<glyph unicode="&#x3e;" horiz-adv-x="1020" d="M168 1002q58 90 98 104q64 -6 150 -58l446 -274q50 -46 54 -135t-54 -145l-446 -274q-86 -52 -150 -58q-40 14 -84 84q-82 162 -4 236l248 152l-248 152q-78 74 -10 216z" />
<glyph unicode="?" horiz-adv-x="1334" d="M110 1042q2 72 30 195t70 183q76 20 164 12q96 -10 178 -90q70 78 192 86h92q158 -16 255 -120t116 -220t13 -200q-2 -82 -72 -140q-54 -42 -158 -82t-114 -94q0 -58 -26 -100q-32 -26 -108 -28q-210 22 -230 128v56q10 128 80 180q88 46 172 112q26 30 14 75t-78 65h-60 q-74 -2 -108 -48q-12 -98 -56 -180q-40 -26 -92 -26q-172 14 -248 78q-28 60 -26 158zM508 184q0 78 58 133t140 55t140 -55t58 -133t-58 -133t-140 -55t-140 55t-58 133z" />
<glyph unicode="@" />
<glyph unicode="A" horiz-adv-x="1652" d="M60 128q18 214 124 236h28q28 176 110 370t138 282q28 30 68 52q-156 0 -196 20q-28 32 -28 108q18 210 124 232h628q158 -18 255 -121t121 -241q21 -118 21 -203q0 -14 -1 -27q3 -141 3 -245q0 -156 -7 -231q82 -4 116 -20q28 -32 28 -108q-18 -210 -124 -232h-392h-22 q-118 0 -158 20q-28 32 -28 108q18 214 124 236h26v102l-346 26l-36 -132q86 -4 120 -20q28 -32 28 -108q-18 -210 -124 -232h-392h-22q-118 0 -158 20q-28 32 -28 108zM770 810l248 -20q1 23 1 44q0 125 -31 170q-36 52 -96 62q-70 -122 -122 -256z" />
<glyph unicode="B" horiz-adv-x="1436" d="M80 132q18 210 124 232h20l28 564q16 86 80 132q-140 6 -184 28q-28 32 -28 108q18 210 124 232h688q170 -4 273 -109t127 -229q18 -93 18 -183q0 -30 -2 -59q-10 -118 -74 -188t-126 -78q92 -42 119 -133q15 -51 15 -108q0 -44 -9 -91q-21 -108 -101 -181 q-76 -69 -177 -69h-11h-696q-136 2 -180 24q-28 32 -28 108zM652 360h104q42 0 62 47q5 13 5 24q0 30 -39 49l-120 10zM688 792l144 -20q87 0 87 121v8q-3 129 -83 151q-30 8 -91 8h-25q-14 -122 -28 -232z" />
<glyph unicode="C" horiz-adv-x="1320" d="M80 532v176q8 188 47 342t145 263t312 115h68q122 -10 170 -138q0 64 38 114q49 27 132 27q16 0 32 -1q106 -6 182 -76q26 -31 26 -83q0 -15 -2 -33q-8 -132 -35 -306t-79 -230q-30 -11 -81 -11q-38 0 -88 6q-117 15 -157 49q-40 52 -40 124q0 17 2 36l12 82 q-18 72 -73 72h-3h-24q-70 -6 -108 -88t-48 -272v-168q16 -138 84 -172h48q62 6 124 152q39 41 85 41q8 0 15 -1q7 1 14 1q92 0 244 -93q29 -30 29 -70q0 -13 -3 -26q-52 -136 -159 -245t-241 -119h-244q-184 2 -292 145t-132 387z" />
<glyph unicode="D" horiz-adv-x="1436" d="M80 132q18 210 124 232h20l28 564q16 86 80 132q-140 6 -184 28q-28 32 -28 108q18 210 124 232h716q158 -18 255 -121t119 -245q14 -92 14 -179q0 -47 -4 -93q-22 -240 -85 -401t-170 -270t-241 -119h-560q-136 2 -180 24q-28 32 -28 108zM652 360h88q62 6 114 128 t62 336v88q-2 134 -96 148h-100q-14 -122 -28 -232z" />
<glyph unicode="E" horiz-adv-x="1470" d="M80 132q18 210 124 232h20l28 564q16 88 76 132q-142 0 -180 20q-28 32 -28 116q18 210 124 232h540q138 -14 186 -142q0 64 38 114q49 27 132 27q16 0 32 -1q106 -6 182 -76q27 -22 27 -76q0 -18 -3 -40q-8 -124 -37 -244t-77 -172q-30 -11 -81 -11q-38 0 -88 6 q-117 15 -157 49q-28 39 -28 92q0 15 2 30q-14 56 -56 76h-136l-28 -256l264 -20q100 -6 156 -38q23 -29 23 -90q0 -9 -1 -20q-24 -148 -132 -164l-338 16l-12 -128l388 2q136 0 180 -22q28 -32 28 -108q-18 -210 -124 -232h-836q-136 2 -180 24q-28 32 -28 108z" />
<glyph unicode="F" horiz-adv-x="1470" d="M80 132q18 210 124 232h20l2 48l26 516q16 88 76 132q-142 0 -180 20q-28 32 -28 116q18 210 124 232h540q138 -14 186 -142q0 64 38 114q49 27 132 27q16 0 32 -1q106 -6 182 -76q27 -22 27 -76q0 -18 -3 -40q-8 -124 -37 -244t-77 -172q-30 -11 -81 -11q-38 0 -88 6 q-117 15 -157 49q-28 39 -28 92q0 15 2 30q-14 56 -56 76h-136l-28 -256l264 -20q100 -6 156 -38q23 -29 23 -90q0 -9 -1 -20q-24 -148 -132 -164l-338 16l-12 -128q86 -4 120 -20q28 -32 28 -108q-18 -210 -124 -232h-388q-136 2 -180 24q-28 32 -28 108z" />
<glyph unicode="G" horiz-adv-x="1320" d="M80 532v176q8 188 47 342t145 263t312 115h52q138 -14 186 -142q0 64 38 114q49 27 132 27q15 0 32 -1q106 -6 182 -76q26 -31 26 -83q0 -16 -2 -33q-8 -132 -35 -246t-79 -170q-30 -11 -81 -11q-38 0 -88 6q-117 15 -157 49q-28 39 -28 92q0 14 2 30q-14 56 -56 76h-44 q-70 -6 -108 -88t-48 -272v-168q16 -138 84 -172h48q54 22 58 57t-28 51q-56 10 -90 44q-18 32 -18 76q0 16 2 32q30 110 86 150q40 29 104 29q26 0 56 -5q166 -14 294 -116q64 -70 64 -167v-17q-16 -112 -75 -216t-147 -184t-202 -94h-240q-184 2 -292 145t-132 387z" />
<glyph unicode="H" horiz-adv-x="1760" d="M80 132q18 210 124 232h20l28 564q16 86 80 132q-140 6 -184 28q-28 32 -28 108q18 210 124 232h432h21q114 0 155 -20q28 -32 28 -108q-18 -210 -124 -240h-36q-14 -122 -30 -244l356 -24l6 136q16 86 80 132q-140 6 -184 28q-28 32 -28 108q18 210 124 232h432h21 q114 0 155 -20q28 -32 28 -108q-18 -210 -124 -240h-36q-14 -122 -28 -232l-40 -468q86 -4 120 -20q28 -32 28 -108q-18 -210 -124 -232h-388q-136 2 -180 24q-28 32 -28 108q18 210 124 232h20l6 102l-366 26l-12 -132q86 -4 120 -20q28 -32 28 -108q-18 -210 -124 -232 h-388q-136 2 -180 24q-28 32 -28 108z" />
<glyph unicode="I" horiz-adv-x="960" d="M80 132q18 210 124 232h20l28 564q16 86 80 132q-140 6 -184 28q-28 32 -28 108q18 210 124 232h432h21q114 0 155 -20q28 -32 28 -108q-18 -210 -124 -240h-36q-14 -122 -28 -232l-40 -468q86 -4 120 -20q28 -32 28 -108q-18 -210 -124 -232h-388q-136 2 -180 24 q-28 32 -28 108z" />
<glyph unicode="J" horiz-adv-x="1452" d="M80 484q10 52 76 60q33 2 64 2q177 0 266 -60q58 -108 98 -126h36q62 6 103 128q39 116 39 253v13l10 174q16 86 80 132q-140 6 -184 28q-28 32 -28 108q18 210 124 232h424h21q115 0 155 -20q28 -32 28 -108q-18 -210 -124 -240h-36q-4 -106 -16 -204q-28 -342 -78 -468 q-62 -162 -169 -270t-229 -118h-244q-184 2 -292 145t-124 339z" />
<glyph unicode="K" horiz-adv-x="1764" d="M80 132q18 210 124 232h20l28 564q16 86 80 132q-140 6 -184 28q-28 32 -28 108q18 210 124 232h432h21q114 0 155 -20q28 -32 28 -108q-18 -210 -124 -240h-36q-14 -122 -28 -248l204 -12h9q53 0 75 42l76 126q30 66 96 96q-156 2 -200 24q-28 32 -28 108 q18 210 124 232h432h21q114 0 155 -20q28 -32 28 -108q-18 -210 -124 -240h-36l-8 -92q-20 -146 -92 -229t-172 -111q210 -74 212 -268q74 -6 104 -20q28 -32 28 -108q-18 -210 -124 -232h-388q-136 2 -180 24q-28 32 -28 108q18 210 124 232h20q5 18 5 33q0 49 -49 75 l-312 20l-12 -132q86 -4 120 -20q28 -32 28 -108q-18 -210 -124 -232h-388q-136 2 -180 24q-28 32 -28 108z" />
<glyph unicode="L" horiz-adv-x="1328" d="M80 132q18 210 124 232h20l28 564q16 86 80 132q-140 6 -184 28q-28 32 -28 108q18 210 124 232h432h21q114 0 155 -20q28 -32 28 -108q-18 -210 -124 -240h-36q-14 -122 -28 -232l-40 -468h32q66 4 100 50q74 128 116 140q17 4 48 4q35 0 86 -5q98 -9 172 -57 q40 -45 40 -112q0 -16 -2 -34q-8 -74 -35 -166t-61 -150q-36 -28 -105 -28q-16 0 -35 2q-116 8 -204 78q-24 40 -24 79v11q-92 -168 -212 -172h-280q-136 2 -180 24q-28 32 -28 108z" />
<glyph unicode="M" horiz-adv-x="2252" d="M80 132q18 210 124 232h20l28 564q16 86 80 132q-140 6 -184 28q-28 32 -28 108q18 210 124 232h452q106 0 144 -68q114 -182 254 -648q154 484 306 662q64 50 144 58l424 -4h21q114 0 155 -20q28 -32 28 -108q-18 -210 -124 -240h-36q-14 -122 -28 -232l-40 -468 q86 -4 120 -20q28 -32 28 -108q-18 -210 -124 -232h-388q-136 2 -180 24q-28 32 -28 108q18 210 124 232h20l22 430l-10 -30q-68 -198 -160 -448t-152 -292q-65 -25 -166 -25q-20 0 -42 1q-60 0 -92 88q-58 170 -108 328t-124 326l-32 -382q86 -4 120 -20q28 -32 28 -108 q-18 -210 -124 -232h-388q-136 2 -180 24q-28 32 -28 108z" />
<glyph unicode="N" horiz-adv-x="1796" d="M80 132q18 210 124 232h20l28 564q16 86 80 132q-140 6 -184 28q-28 32 -28 108q18 210 124 232h432q74 -4 124 -64q36 -20 131 -272t143 -438l14 274q16 86 80 132q-140 6 -184 28q-28 32 -28 108q18 210 124 232h432h21q114 0 155 -20q28 -32 28 -108 q-18 -210 -124 -240h-36q-14 -122 -28 -232l-40 -468q86 -4 120 -20q28 -32 28 -108q-18 -210 -124 -232h-424q-82 6 -128 64q-42 56 -139 306t-139 346l-30 -356q86 -4 120 -20q28 -32 28 -108q-18 -210 -124 -232h-388q-136 2 -180 24q-28 32 -28 108z" />
<glyph unicode="O" horiz-adv-x="1324" d="M80 532v176q8 188 47 342t145 263t312 115h264q158 -18 255 -121t119 -245q14 -92 14 -179q0 -47 -4 -93q-22 -240 -85 -401t-170 -270t-241 -119h-232q-184 2 -292 145t-132 387zM508 532q16 -138 84 -172h36q62 6 114 128t62 336v88q-2 134 -96 148h-44 q-70 -6 -108 -88t-48 -272v-168z" />
<glyph unicode="P" horiz-adv-x="1466" d="M80 132q18 210 124 232h20l28 564q16 86 80 132q-140 6 -184 28q-28 32 -28 108q18 210 124 232h752q154 -14 250 -117t118 -245q13 -87 13 -168q0 -51 -5 -100q-20 -144 -106 -217t-182 -94q-70 -15 -148 -15q-30 0 -62 2l-206 14l-16 -128q86 -4 120 -20 q28 -32 28 -108q-18 -210 -124 -232h-388q-136 2 -180 24q-28 32 -28 108zM690 812l178 -16q76 15 76 104v14v11q0 126 -92 135h-128q-20 -140 -34 -248z" />
<glyph unicode="Q" horiz-adv-x="1324" d="M80 532v176q8 188 47 342t145 263t312 115h264q158 -18 255 -121t119 -245q14 -92 14 -179q0 -47 -4 -93q-22 -240 -85 -401t-169 -269q-94 -96 -206 -116q-4 -28 -8 -58q-24 -152 -76 -208q-32 -12 -79 -12q-31 0 -68 5q-95 13 -135 47q-40 52 -40 124q0 17 2 36 q4 44 10 82q-98 34 -166 126q-108 142 -132 386zM508 532q16 -130 80 -172h44q60 10 110 128q52 122 62 336v88q-2 134 -96 148h-44q-70 -6 -108 -88t-48 -272v-168z" />
<glyph unicode="R" horiz-adv-x="1572" d="M80 132q18 210 124 232h20l28 564q16 86 80 132q-140 6 -184 28q-28 32 -28 108q18 210 124 232h752q154 -14 250 -117t118 -245q13 -87 13 -168q0 -51 -5 -100q-16 -116 -76 -186q-16 -14 -34 -28q120 -80 122 -224q58 -6 88 -20q28 -32 28 -108q-18 -210 -124 -232 h-344q-136 2 -180 24q-28 32 -28 108q18 210 124 232q5 18 5 34q0 47 -45 70l-240 20l-16 -128q62 -4 96 -20q28 -32 28 -108q-18 -210 -124 -232h-364q-136 2 -180 24q-28 32 -28 108zM690 812l178 -16q76 15 76 104v14v11q0 126 -92 135h-128q-20 -140 -34 -248z" />
<glyph unicode="S" horiz-adv-x="1300" d="M86 886q2 92 31 205t135 222t312 115h52q138 -14 186 -142q0 64 38 114q49 27 132 27q16 0 32 -1q106 -6 182 -76q26 -31 26 -83q0 -15 -2 -33q-8 -132 -35 -246t-79 -170q-30 -11 -81 -11q-38 0 -88 6q-117 15 -157 49q-28 39 -28 92q0 15 2 30q-14 56 -56 76h-44 q-78 -6 -98 -70q-2 -11 -2 -21q0 -49 56 -88q68 -47 275 -117t263 -134q29 -37 30 -102q0 -32 -8 -72q-20 -102 -75 -193t-127 -160t-154 -89q-63 -15 -138 -15q-22 0 -46 1q-84 20 -120 94l-38 -70q-33 -24 -86 -24h-8q-162 6 -250 76q-29 43 -29 98q0 17 3 36 q10 88 30 171t72 153q47 15 112 15q23 0 48 -2q96 -7 162 -59q18 -98 76 -128h36q62 14 68 64q1 6 1 11q0 42 -43 61q-134 46 -270 84t-232 112q-66 72 -66 187v7z" />
<glyph unicode="T" horiz-adv-x="1404" d="M74 1042q2 72 30 195t70 183q51 15 108 15h19q67 -3 149 -71q58 62 140 68h272q108 -28 150 -138q0 64 38 114q42 23 92 23q19 0 38 -3q72 -12 124 -70q24 -32 24 -97v-19q-8 -132 -35 -246t-79 -170q-30 -11 -66 -11q-27 0 -57 6q-71 15 -111 49q-28 39 -28 92 q0 15 2 30q-10 60 -50 72q-16 -134 -30 -236l-40 -468q86 -4 120 -20q28 -32 28 -108q-18 -210 -124 -232h-380q-144 2 -188 24q-28 32 -28 108q18 210 124 232h28l28 564q10 76 58 136q-26 -4 -62 -24q-10 -26 -26 -94t-54 -114q-29 -27 -81 -27q-10 0 -21 1 q-80 14 -156 78q-26 56 -26 145v13z" />
<glyph unicode="U" horiz-adv-x="1648" d="M80 1196q18 210 124 232h412h21q114 0 155 -20q28 -32 28 -108q-18 -210 -124 -240h-40q-14 -122 -36 -472v-56q16 -138 84 -172h88q62 6 114 128t62 336l4 104q16 86 80 132q-116 6 -160 28q-28 32 -28 108q18 210 124 232h396h19q104 0 145 -20q28 -32 28 -108 q-18 -210 -124 -240h-28q-6 -58 -28 -270q-22 -240 -85 -401t-170 -270t-241 -119h-284q-184 2 -292 145t-132 387l12 396q16 86 80 132q-132 6 -176 28q-28 32 -28 108z" />
<glyph unicode="V" horiz-adv-x="1640" d="M60 1200q18 210 124 232h412h21q114 0 155 -20q28 -32 28 -108q-18 -210 -124 -240h-40q-10 -66 -16 -208l16 -292q14 -180 84 -204h20q44 6 109 144t127 428q16 84 78 130q-114 8 -158 30q-28 32 -28 108q18 210 124 232h396h19q104 0 145 -20q28 -32 28 -108 q-18 -210 -124 -240h-28q-4 -36 -16 -116q-36 -248 -150 -490t-247 -350t-283 -108h-116q-144 6 -239 96t-136 236t-43 284l-14 316q16 86 80 132q-132 6 -176 28q-28 32 -28 108z" />
<glyph unicode="W" horiz-adv-x="2396" d="M60 1200q18 210 124 232h412h21q114 0 155 -20q28 -32 28 -108q-18 -210 -124 -240h-40q-10 -66 -16 -208l8 -292q6 -156 84 -204h40q36 4 100 157t124 415q16 84 78 130q-114 8 -158 30q-28 32 -28 108q18 210 124 232q494 0 536 -20q28 -32 28 -108q-18 -210 -124 -240 h-28h-12q-10 -66 -16 -208l8 -292q6 -156 84 -204h40q36 4 100 157t124 415q16 84 78 130q-114 8 -158 30q-28 32 -28 108q18 210 124 232h396h19q104 0 145 -20q28 -32 28 -108q-18 -210 -124 -240h-28q-4 -36 -16 -116q-36 -248 -150 -490t-278 -374q-84 -74 -240 -84 h-136q-150 10 -202 79t-82 119q-54 -64 -117 -126t-219 -72h-136q-150 10 -244 106t-132 236t-42 274l-6 316q16 86 80 132q-132 6 -176 28q-28 32 -28 108z" />
<glyph unicode="X" horiz-adv-x="1764" d="M80 128q18 210 124 240h24q-1 14 -1 27q0 139 117 217l144 72q-110 38 -206 122q-39 33 -39 87q0 7 1 15q10 82 72 152q-118 6 -160 28q-28 32 -28 108q18 210 124 232h432h21q114 0 155 -20q28 -32 28 -108q-18 -210 -124 -240h-50l-10 -68q2 -90 152 -142q82 24 155 83 t113 127q-130 6 -172 28q-28 32 -28 108q18 210 124 232h432h21q114 0 155 -20q28 -32 28 -108q-18 -210 -124 -240h-36q-22 -138 -131 -231t-217 -151q130 -52 206 -135t74 -179q94 -6 128 -24q28 -32 28 -108q-18 -210 -124 -232h-432h-20q-108 0 -148 20q-28 32 -28 108 q18 210 124 240h52q-6 34 -72 86t-144 70q-110 -44 -168 -132v-26q84 -8 120 -26q28 -32 28 -108q-18 -210 -124 -232h-392h-21q-114 0 -155 20q-28 32 -28 108z" />
<glyph unicode="Y" horiz-adv-x="1668" d="M60 1196q18 210 124 232h432h21q115 0 155 -20q28 -32 28 -108q-18 -210 -124 -240h-50l-10 -68q2 -146 152 -198h10q104 0 183 81q76 78 76 168q0 8 -1 17q-130 6 -172 28q-28 32 -28 108q18 210 124 232h432h21q111 0 151 -20q28 -32 28 -108q-18 -210 -124 -240h-32 q-10 -184 -100 -321t-186 -191t-186 -70l-12 -118q86 -4 120 -20q28 -32 28 -108q-18 -210 -124 -232h-388q-156 2 -200 24q-28 32 -28 108q18 210 124 232h40l8 122q-90 40 -176 101t-156 149q-45 46 -45 147q0 12 1 25q10 82 72 152q-118 6 -160 28q-28 32 -28 108z" />
<glyph unicode="Z" horiz-adv-x="1304" d="M80 252v248q12 88 124 140q174 76 312 131t246 145q14 30 14 71v10q-2 47 -52 59h-88q-54 0 -76 -28q-8 -18 -24 -86t-54 -114q-29 -27 -81 -27q-10 0 -21 1q-172 14 -248 78q-26 56 -26 145v13q2 72 30 195t70 183q51 15 142 15h31q113 -3 193 -75q60 66 148 72h268 q218 -6 236 -156v-376q-10 -94 -80 -152q-46 -38 -302 -160t-310 -152v-24q12 -48 76 -48h40q66 4 100 50q74 128 116 140q17 4 48 4q35 0 86 -5q98 -9 172 -57q40 -45 40 -112q0 -16 -2 -34q-8 -74 -35 -166t-61 -150q-36 -28 -105 -28q-16 0 -35 2q-116 8 -204 78 q-24 40 -24 79v11q-92 -168 -212 -172h-264q-86 0 -134 67t-54 185z" />
<glyph unicode="[" horiz-adv-x="854" d="M122 256l44 776q10 262 33 370t139 130h252q132 2 176 -20q28 -32 28 -108q-18 -210 -124 -240h-36q-14 -122 -84 -912q86 -4 120 -20q28 -32 28 -108q-18 -210 -124 -232h-320q-112 8 -129 91t-3 273z" />
<glyph unicode="\" horiz-adv-x="608" d="M10 1300q-2 108 168 166q84 18 120 -2q42 -48 66 -144l234 -1184q2 -108 -146 -162q-106 -22 -142 -2q-42 48 -66 144z" />
<glyph unicode="]" horiz-adv-x="854" d="M60 20q18 210 124 240h36q14 122 84 912q-86 4 -120 20q-28 32 -28 108q18 210 124 232h320q112 -8 129 -91t3 -273l-44 -776q-10 -262 -33 -370t-139 -130h-252q-132 -2 -176 20q-28 32 -28 108z" />
<glyph unicode="^" horiz-adv-x="1720" d="M468 1686q-20 108 0 144q50 40 114 70l162 76q58 20 116 20t116 -20l162 -76q64 -30 114 -70q20 -36 0 -144q-48 -150 -156 -150l-230 90l-242 -90q-108 0 -156 150z" />
<glyph unicode="_" horiz-adv-x="1036" d="M102 156q22 180 128 198l524 -22q100 -4 156 -34q26 -34 24 -142q-22 -156 -128 -174l-524 22q-100 4 -156 34q-26 34 -24 118z" />
<glyph unicode="`" horiz-adv-x="1632" d="M432 1822q52 174 160 174l456 -110q98 -20 148 -60q20 -36 0 -144q-48 -150 -156 -150l-456 110q-98 20 -148 60q-20 36 -4 120z" />
<glyph unicode="a" horiz-adv-x="1652" d="M60 128q18 214 124 236h28q28 176 110 370t138 282q28 30 68 52q-156 0 -196 20q-28 32 -28 108q18 210 124 232h628q158 -18 255 -121t121 -241q21 -118 21 -203q0 -14 -1 -27q3 -141 3 -245q0 -156 -7 -231q82 -4 116 -20q28 -32 28 -108q-18 -210 -124 -232h-392h-22 q-118 0 -158 20q-28 32 -28 108q18 214 124 236h26v102l-346 26l-36 -132q86 -4 120 -20q28 -32 28 -108q-18 -210 -124 -232h-392h-22q-118 0 -158 20q-28 32 -28 108zM770 810l248 -20q1 23 1 44q0 125 -31 170q-36 52 -96 62q-70 -122 -122 -256z" />
<glyph unicode="b" horiz-adv-x="1436" d="M80 132q18 210 124 232h20l28 564q16 86 80 132q-140 6 -184 28q-28 32 -28 108q18 210 124 232h688q170 -4 273 -109t127 -229q18 -93 18 -183q0 -30 -2 -59q-10 -118 -74 -188t-126 -78q92 -42 119 -133q15 -51 15 -108q0 -44 -9 -91q-21 -108 -101 -181 q-76 -69 -177 -69h-11h-696q-136 2 -180 24q-28 32 -28 108zM652 360h104q42 0 62 47q5 13 5 24q0 30 -39 49l-120 10zM688 792l144 -20q87 0 87 121v8q-3 129 -83 151q-30 8 -91 8h-25q-14 -122 -28 -232z" />
<glyph unicode="c" horiz-adv-x="1320" d="M80 532v176q8 188 47 342t145 263t312 115h68q122 -10 170 -138q0 64 38 114q49 27 132 27q16 0 32 -1q106 -6 182 -76q26 -31 26 -83q0 -15 -2 -33q-8 -132 -35 -306t-79 -230q-30 -11 -81 -11q-38 0 -88 6q-117 15 -157 49q-40 52 -40 124q0 17 2 36l12 82 q-18 72 -73 72h-3h-24q-70 -6 -108 -88t-48 -272v-168q16 -138 84 -172h48q62 6 124 152q39 41 85 41q8 0 15 -1q7 1 14 1q92 0 244 -93q29 -30 29 -70q0 -13 -3 -26q-52 -136 -159 -245t-241 -119h-244q-184 2 -292 145t-132 387z" />
<glyph unicode="d" horiz-adv-x="1436" d="M80 132q18 210 124 232h20l28 564q16 86 80 132q-140 6 -184 28q-28 32 -28 108q18 210 124 232h716q158 -18 255 -121t119 -245q14 -92 14 -179q0 -47 -4 -93q-22 -240 -85 -401t-170 -270t-241 -119h-560q-136 2 -180 24q-28 32 -28 108zM652 360h88q62 6 114 128 t62 336v88q-2 134 -96 148h-100q-14 -122 -28 -232z" />
<glyph unicode="e" horiz-adv-x="1468" d="M80 132q18 210 124 232h20l28 564q16 88 76 132q-142 0 -180 20q-28 32 -28 116q18 210 124 232h540q138 -14 186 -142q0 64 38 114q49 27 132 27q16 0 32 -1q106 -6 182 -76q27 -22 27 -76q0 -18 -3 -40q-8 -124 -37 -244t-77 -172q-30 -11 -81 -11q-38 0 -88 6 q-117 15 -157 49q-28 39 -28 92q0 15 2 30q-14 56 -56 76h-136l-28 -256l264 -20q100 -6 156 -38q23 -29 23 -90q0 -9 -1 -20q-24 -148 -132 -164l-338 16l-12 -128l388 2q136 0 180 -22q28 -32 28 -108q-18 -210 -124 -232h-836q-136 2 -180 24q-28 32 -28 108z" />
<glyph unicode="f" horiz-adv-x="1470" d="M80 132q18 210 124 232h20l2 48l26 516q16 88 76 132q-142 0 -180 20q-28 32 -28 116q18 210 124 232h540q138 -14 186 -142q0 64 38 114q49 27 132 27q15 0 32 -1q106 -6 182 -76q27 -22 27 -76q0 -18 -3 -40q-8 -124 -37 -244t-77 -172q-30 -11 -81 -11q-38 0 -88 6 q-117 15 -157 49q-28 39 -28 92q0 14 2 30q-14 56 -56 76h-136l-28 -256l264 -20q100 -6 156 -38q23 -29 23 -90q0 -10 -1 -20q-24 -148 -132 -164l-338 16l-12 -128q86 -4 120 -20q28 -32 28 -108q-18 -210 -124 -232h-388q-136 2 -180 24q-28 32 -28 108z" />
<glyph unicode="g" horiz-adv-x="1320" d="M80 532v176q8 188 47 342t145 263t312 115h52q138 -14 186 -142q0 64 38 114q49 27 132 27q15 0 32 -1q106 -6 182 -76q26 -31 26 -83q0 -16 -2 -33q-8 -132 -35 -246t-79 -170q-30 -11 -81 -11q-38 0 -88 6q-117 15 -157 49q-28 39 -28 92q0 14 2 30q-14 56 -56 76h-44 q-70 -6 -108 -88t-48 -272v-168q16 -138 84 -172h48q54 22 58 57t-28 51q-56 10 -90 44q-18 32 -18 76q0 16 2 32q30 110 86 150q40 29 104 29q26 0 56 -5q166 -14 294 -116q64 -70 64 -167v-17q-16 -112 -75 -216t-147 -184t-202 -94h-240q-184 2 -292 145t-132 387z" />
<glyph unicode="h" horiz-adv-x="1760" d="M80 132q18 210 124 232h20l28 564q16 86 80 132q-140 6 -184 28q-28 32 -28 108q18 210 124 232h432h21q114 0 155 -20q28 -32 28 -108q-18 -210 -124 -240h-36q-14 -122 -30 -244l356 -24l6 136q16 86 80 132q-140 6 -184 28q-28 32 -28 108q18 210 124 232h432h21 q114 0 155 -20q28 -32 28 -108q-18 -210 -124 -240h-36q-14 -122 -28 -232l-40 -468q86 -4 120 -20q28 -32 28 -108q-18 -210 -124 -232h-388q-136 2 -180 24q-28 32 -28 108q18 210 124 232h20l6 102l-366 26l-12 -132q86 -4 120 -20q28 -32 28 -108q-18 -210 -124 -232 h-388q-136 2 -180 24q-28 32 -28 108z" />
<glyph unicode="i" horiz-adv-x="960" d="M80 132q18 210 124 232h20l28 564q16 86 80 132q-140 6 -184 28q-28 32 -28 108q18 210 124 232h432h21q114 0 155 -20q28 -32 28 -108q-18 -210 -124 -240h-36q-14 -122 -28 -232l-40 -468q86 -4 120 -20q28 -32 28 -108q-18 -210 -124 -232h-388q-136 2 -180 24 q-28 32 -28 108z" />
<glyph unicode="j" horiz-adv-x="1452" d="M80 484q10 52 76 60q33 2 64 2q177 0 266 -60q58 -108 98 -126h36q62 6 103 128q39 116 39 253v13l10 174q16 86 80 132q-140 6 -184 28q-28 32 -28 108q18 210 124 232h424h21q115 0 155 -20q28 -32 28 -108q-18 -210 -124 -240h-36q-4 -106 -16 -204q-28 -342 -78 -468 q-62 -162 -169 -270t-229 -118h-244q-184 2 -292 145t-124 339z" />
<glyph unicode="k" horiz-adv-x="1764" d="M80 132q18 210 124 232h20l28 564q16 86 80 132q-140 6 -184 28q-28 32 -28 108q18 210 124 232h432h21q114 0 155 -20q28 -32 28 -108q-18 -210 -124 -240h-36q-14 -122 -28 -248l204 -12h9q53 0 75 42l76 126q30 66 96 96q-156 2 -200 24q-28 32 -28 108 q18 210 124 232h432h21q114 0 155 -20q28 -32 28 -108q-18 -210 -124 -240h-36l-8 -92q-20 -146 -92 -229t-172 -111q210 -74 212 -268q74 -6 104 -20q28 -32 28 -108q-18 -210 -124 -232h-388q-136 2 -180 24q-28 32 -28 108q18 210 124 232h20q5 18 5 33q0 49 -49 75 l-312 20l-12 -132q86 -4 120 -20q28 -32 28 -108q-18 -210 -124 -232h-388q-136 2 -180 24q-28 32 -28 108z" />
<glyph unicode="l" horiz-adv-x="1328" d="M80 132q18 210 124 232h20l28 564q16 86 80 132q-140 6 -184 28q-28 32 -28 108q18 210 124 232h432h21q114 0 155 -20q28 -32 28 -108q-18 -210 -124 -240h-36q-14 -122 -28 -232l-40 -468h32q66 4 100 50q74 128 116 140q17 4 48 4q35 0 86 -5q98 -9 172 -57 q40 -45 40 -112q0 -16 -2 -34q-8 -74 -35 -166t-61 -150q-36 -28 -105 -28q-16 0 -35 2q-116 8 -204 78q-24 40 -24 79v11q-92 -168 -212 -172h-280q-136 2 -180 24q-28 32 -28 108z" />
<glyph unicode="m" horiz-adv-x="2252" d="M80 132q18 210 124 232h20l28 564q16 86 80 132q-140 6 -184 28q-28 32 -28 108q18 210 124 232h452q106 0 144 -68q114 -182 254 -648q154 484 306 662q64 50 144 58l424 -4h21q114 0 155 -20q28 -32 28 -108q-18 -210 -124 -240h-36q-14 -122 -28 -232l-40 -468 q86 -4 120 -20q28 -32 28 -108q-18 -210 -124 -232h-388q-136 2 -180 24q-28 32 -28 108q18 210 124 232h20l22 430l-10 -30q-68 -198 -160 -448t-152 -292q-65 -25 -166 -25q-20 0 -42 1q-60 0 -92 88q-58 170 -108 328t-124 326l-32 -382q86 -4 120 -20q28 -32 28 -108 q-18 -210 -124 -232h-388q-136 2 -180 24q-28 32 -28 108z" />
<glyph unicode="n" horiz-adv-x="1796" d="M80 132q18 210 124 232h20l28 564q16 86 80 132q-140 6 -184 28q-28 32 -28 108q18 210 124 232h432q74 -4 124 -64q36 -20 131 -272t143 -438l14 274q16 86 80 132q-140 6 -184 28q-28 32 -28 108q18 210 124 232h432h21q114 0 155 -20q28 -32 28 -108 q-18 -210 -124 -240h-36q-14 -122 -28 -232l-40 -468q86 -4 120 -20q28 -32 28 -108q-18 -210 -124 -232h-424q-82 6 -128 64q-42 56 -139 306t-139 346l-30 -356q86 -4 120 -20q28 -32 28 -108q-18 -210 -124 -232h-388q-136 2 -180 24q-28 32 -28 108z" />
<glyph unicode="o" horiz-adv-x="1324" d="M80 532v176q8 188 47 342t145 263t312 115h264q158 -18 255 -121t119 -245q14 -92 14 -179q0 -47 -4 -93q-22 -240 -85 -401t-170 -270t-241 -119h-232q-184 2 -292 145t-132 387zM508 532q16 -138 84 -172h36q62 6 114 128t62 336v88q-2 134 -96 148h-44 q-70 -6 -108 -88t-48 -272v-168z" />
<glyph unicode="p" horiz-adv-x="1466" d="M80 132q18 210 124 232h20l28 564q16 86 80 132q-140 6 -184 28q-28 32 -28 108q18 210 124 232h752q154 -14 250 -117t118 -245q13 -87 13 -168q0 -51 -5 -100q-20 -144 -106 -217t-182 -94q-70 -15 -148 -15q-31 0 -62 2l-206 14l-16 -128q86 -4 120 -20 q28 -32 28 -108q-18 -210 -124 -232h-388q-136 2 -180 24q-28 32 -28 108zM690 812l178 -16q76 15 76 104v14v11q0 125 -92 135h-128q-20 -140 -34 -248z" />
<glyph unicode="q" horiz-adv-x="1324" d="M80 532v176q8 188 47 342t145 263t312 115h264q158 -18 255 -121t119 -245q14 -92 14 -179q0 -47 -4 -93q-22 -240 -85 -401t-169 -269q-94 -96 -206 -116q-4 -28 -8 -58q-24 -152 -76 -208q-32 -12 -79 -12q-31 0 -68 5q-95 13 -135 47q-40 52 -40 124q0 17 2 36 q4 44 10 82q-98 34 -166 126q-108 142 -132 386zM508 532q16 -130 80 -172h44q60 10 110 128q52 122 62 336v88q-2 134 -96 148h-44q-70 -6 -108 -88t-48 -272v-168z" />
<glyph unicode="r" horiz-adv-x="1572" d="M80 132q18 210 124 232h20l28 564q16 86 80 132q-140 6 -184 28q-28 32 -28 108q18 210 124 232h752q154 -14 250 -117t118 -245q13 -87 13 -168q0 -51 -5 -100q-16 -116 -76 -186q-16 -14 -34 -28q120 -80 122 -224q58 -6 88 -20q28 -32 28 -108q-18 -210 -124 -232 h-344q-136 2 -180 24q-28 32 -28 108q18 210 124 232q5 18 5 34q0 47 -45 70l-240 20l-16 -128q62 -4 96 -20q28 -32 28 -108q-18 -210 -124 -232h-364q-136 2 -180 24q-28 32 -28 108zM690 812l178 -16q76 15 76 104v14v11q0 126 -92 135h-128q-20 -140 -34 -248z" />
<glyph unicode="s" horiz-adv-x="1300" d="M86 886q2 92 31 205t135 222t312 115h52q138 -14 186 -142q0 64 38 114q49 27 132 27q16 0 32 -1q106 -6 182 -76q26 -31 26 -83q0 -15 -2 -33q-8 -132 -35 -246t-79 -170q-30 -11 -81 -11q-38 0 -88 6q-117 15 -157 49q-28 39 -28 92q0 15 2 30q-14 56 -56 76h-44 q-78 -6 -98 -70q-2 -11 -2 -21q0 -49 56 -88q68 -47 275 -117t263 -134q29 -37 30 -102q0 -32 -8 -72q-20 -102 -75 -193t-127 -160t-154 -89q-63 -15 -138 -15q-22 0 -46 1q-84 20 -120 94l-38 -70q-33 -24 -86 -24h-8q-162 6 -250 76q-29 43 -29 98q0 17 3 36 q10 88 30 171t72 153q47 15 112 15q23 0 48 -2q96 -7 162 -59q18 -98 76 -128h36q62 14 68 64q1 6 1 11q0 42 -43 61q-134 46 -270 84t-232 112q-66 72 -66 187v7z" />
<glyph unicode="t" horiz-adv-x="1404" d="M74 1042q2 72 30 195t70 183q51 15 108 15h19q67 -3 149 -71q58 62 140 68h272q108 -28 150 -138q0 64 38 114q42 23 92 23q19 0 38 -3q72 -12 124 -70q24 -32 24 -97v-19q-8 -132 -35 -246t-79 -170q-30 -11 -66 -11q-27 0 -57 6q-71 15 -111 49q-28 39 -28 92 q0 15 2 30q-10 60 -50 72q-16 -134 -30 -236l-40 -468q86 -4 120 -20q28 -32 28 -108q-18 -210 -124 -232h-380q-144 2 -188 24q-28 32 -28 108q18 210 124 232h28l28 564q10 76 58 136q-26 -4 -62 -24q-10 -26 -26 -94t-54 -114q-29 -27 -81 -27q-10 0 -21 1 q-80 14 -156 78q-26 56 -26 145v13z" />
<glyph unicode="u" horiz-adv-x="1648" d="M80 1196q18 210 124 232h412h21q114 0 155 -20q28 -32 28 -108q-18 -210 -124 -240h-40q-14 -122 -36 -472v-56q16 -138 84 -172h88q62 6 114 128t62 336l4 104q16 86 80 132q-116 6 -160 28q-28 32 -28 108q18 210 124 232h396h19q104 0 145 -20q28 -32 28 -108 q-18 -210 -124 -240h-28q-6 -58 -28 -270q-22 -240 -85 -401t-170 -270t-241 -119h-284q-184 2 -292 145t-132 387l12 396q16 86 80 132q-132 6 -176 28q-28 32 -28 108z" />
<glyph unicode="v" horiz-adv-x="1640" d="M60 1200q18 210 124 232h412h21q114 0 155 -20q28 -32 28 -108q-18 -210 -124 -240h-40q-10 -66 -16 -208l16 -292q14 -180 84 -204h20q44 6 109 144t127 428q16 84 78 130q-114 8 -158 30q-28 32 -28 108q18 210 124 232h396h19q104 0 145 -20q28 -32 28 -108 q-18 -210 -124 -240h-28q-4 -36 -16 -116q-36 -248 -150 -490t-247 -350t-283 -108h-116q-144 6 -239 96t-136 236t-43 284l-14 316q16 86 80 132q-132 6 -176 28q-28 32 -28 108z" />
<glyph unicode="w" horiz-adv-x="2396" d="M60 1200q18 210 124 232h412h21q114 0 155 -20q28 -32 28 -108q-18 -210 -124 -240h-40q-10 -66 -16 -208l8 -292q6 -156 84 -204h40q36 4 100 157t124 415q16 84 78 130q-114 8 -158 30q-28 32 -28 108q18 210 124 232q494 0 536 -20q28 -32 28 -108q-18 -210 -124 -240 h-28h-12q-10 -66 -16 -208l8 -292q6 -156 84 -204h40q36 4 100 157t124 415q16 84 78 130q-114 8 -158 30q-28 32 -28 108q18 210 124 232h396h19q104 0 145 -20q28 -32 28 -108q-18 -210 -124 -240h-28q-4 -36 -16 -116q-36 -248 -150 -490t-278 -374q-84 -74 -240 -84 h-136q-150 10 -202 79t-82 119q-54 -64 -117 -126t-219 -72h-136q-150 10 -244 106t-132 236t-42 274l-6 316q16 86 80 132q-132 6 -176 28q-28 32 -28 108z" />
<glyph unicode="x" horiz-adv-x="1764" d="M80 128q18 210 124 240h24q-1 14 -1 27q0 139 117 217l144 72q-110 38 -206 122q-39 33 -39 87q0 7 1 15q10 82 72 152q-118 6 -160 28q-28 32 -28 108q18 210 124 232h432h21q114 0 155 -20q28 -32 28 -108q-18 -210 -124 -240h-50l-10 -68q2 -90 152 -142q82 24 155 83 t113 127q-130 6 -172 28q-28 32 -28 108q18 210 124 232h432h21q114 0 155 -20q28 -32 28 -108q-18 -210 -124 -240h-36q-22 -138 -131 -231t-217 -151q130 -52 206 -135t74 -179q94 -6 128 -24q28 -32 28 -108q-18 -210 -124 -232h-432h-20q-108 0 -148 20q-28 32 -28 108 q18 210 124 240h52q-6 34 -72 86t-144 70q-110 -44 -168 -132v-26q84 -8 120 -26q28 -32 28 -108q-18 -210 -124 -232h-392h-21q-114 0 -155 20q-28 32 -28 108z" />
<glyph unicode="y" horiz-adv-x="1668" d="M60 1196q18 210 124 232h432h21q115 0 155 -20q28 -32 28 -108q-18 -210 -124 -240h-50l-10 -68q2 -146 152 -198h10q104 0 183 81q76 78 76 168q0 8 -1 17q-130 6 -172 28q-28 32 -28 108q18 210 124 232h432h21q111 0 151 -20q28 -32 28 -108q-18 -210 -124 -240h-32 q-10 -184 -100 -321t-186 -191t-186 -70l-12 -118q86 -4 120 -20q28 -32 28 -108q-18 -210 -124 -232h-388q-156 2 -200 24q-28 32 -28 108q18 210 124 232h40l8 122q-90 40 -176 101t-156 149q-45 46 -45 147q0 12 1 25q10 82 72 152q-118 6 -160 28q-28 32 -28 108z" />
<glyph unicode="z" horiz-adv-x="1304" d="M80 252v248q12 88 124 140q174 76 312 131t246 145q14 30 14 71v10q-2 47 -52 59h-88q-54 0 -76 -28q-8 -18 -24 -86t-54 -114q-29 -27 -81 -27q-10 0 -21 1q-172 14 -248 78q-26 56 -26 145v13q2 72 30 195t70 183q51 15 142 15h31q113 -3 193 -75q60 66 148 72h268 q218 -6 236 -156v-376q-10 -94 -80 -152q-46 -38 -302 -160t-310 -152v-24q12 -48 76 -48h40q66 4 100 50q74 128 116 140q17 4 48 4q35 0 86 -5q98 -9 172 -57q40 -45 40 -112q0 -16 -2 -34q-8 -74 -35 -166t-61 -150q-36 -28 -105 -28q-16 0 -35 2q-116 8 -204 78 q-24 40 -24 79v11q-92 -168 -212 -172h-264q-86 0 -134 67t-54 185z" />
<glyph unicode="{" />
<glyph unicode="|" horiz-adv-x="576" d="M88 94l48 1206q8 98 44 154q32 24 118 18q176 -30 190 -138l-48 -1206q-8 -98 -44 -154q-32 -24 -140 -18q-154 30 -168 138z" />
<glyph unicode="}" />
<glyph unicode="~" />
<glyph unicode="&#xa0;" />
<glyph unicode="&#xa1;" horiz-adv-x="924" d="M128 192q-6 142 144 660q10 62 42 100q32 26 108 28q210 -22 230 -128q152 -548 152 -624q-18 -210 -124 -232h-364q-108 4 -152 36t-36 160zM260 1240q0 78 58 133t140 55t140 -55t58 -133t-58 -133t-140 -55t-140 55t-58 133z" />
<glyph unicode="&#xa2;" horiz-adv-x="1360" d="M80 532v88q8 188 47 342t145 263t312 115h52q10 76 26 116q14 22 54 2q72 -54 78 -156q44 -34 68 -100q0 64 38 114q58 32 164 26t182 -76q34 -40 24 -116q-8 -132 -35 -306t-79 -230q-52 -20 -169 -5t-157 49q-50 64 -38 160l12 82q-12 46 -38 62l-52 -588q46 32 90 138 q46 48 100 40q94 8 258 -92q38 -40 26 -96q-52 -136 -159 -245t-241 -119h-106q-10 -86 -28 -130q-14 -22 -64 2q-56 44 -66 128h-20q-184 2 -292 145t-132 387zM508 532q10 -92 44 -138l48 552q-26 -22 -44 -62q-38 -82 -48 -272v-80z" />
<glyph unicode="&#xa3;" horiz-adv-x="1488" d="M90 628q22 118 128 130l38 -2q-12 54 -12 120q8 92 45 210t143 227t312 115h68q122 -10 170 -138q0 64 38 114q58 32 164 26t182 -76q34 -40 24 -116q-8 -132 -35 -306t-79 -230q-52 -20 -169 -5t-157 49q-50 64 -38 160l12 82q-18 74 -76 72h-24q-70 -6 -108 -88 q-38 -30 -44 -104q8 -62 26 -124q108 -4 164 -20q26 -26 24 -96q-22 -102 -128 -114l-46 2l-20 -84v-24q12 -48 76 -48h40q66 4 100 50q74 128 116 140q36 8 134 -1t172 -57q50 -56 38 -146q-8 -74 -35 -166t-61 -150q-44 -34 -140 -26q-116 8 -204 78q-28 46 -24 90 q-92 -168 -212 -172h-264q-86 0 -134 67t-54 185q2 80 44 276h-14q-100 4 -156 20q-26 26 -24 80z" />
<glyph unicode="&#xa4;" />
<glyph unicode="&#xa5;" horiz-adv-x="1752" d="M100 1196q18 210 124 232h432q132 2 176 -20q28 -32 28 -108q-18 -210 -124 -240h-50l-14 -52q18 -80 168 -104q94 6 179 31t77 125q-130 6 -172 28q-28 32 -28 108q18 210 124 232h432q128 2 172 -20q28 -32 28 -108q-18 -210 -124 -240h-32q0 -110 -28 -182 q60 -4 98 -18q26 -26 22 -58q-16 -100 -122 -116l-202 2q-16 -8 -32 -14q-110 -48 -200 -64v-2l274 -8q100 -2 156 -24q26 -26 22 -58q-16 -100 -122 -114l-346 8l-4 -52q86 -4 120 -20q28 -32 28 -108q-18 -210 -124 -232h-388q-156 2 -200 24q-28 32 -28 108 q18 210 124 232h40l4 58l-206 8q-100 2 -156 24q-28 34 -24 92q18 66 124 80l274 -10v2q-90 10 -192 48q-44 16 -76 36h-18q-100 2 -156 24q-28 34 -24 92q14 52 82 72v18q10 82 72 152q-118 6 -160 28q-28 32 -28 108z" />
<glyph unicode="&#xa6;" />
<glyph unicode="&#xa7;" />
<glyph unicode="&#xa8;" horiz-adv-x="1740" />
<glyph unicode="&#xa9;" />
<glyph unicode="&#xaa;" />
<glyph unicode="&#xab;" horiz-adv-x="1182" d="M90 712q-2 38 18 80l174 528q24 96 66 144q36 20 120 2q170 -58 168 -166l-192 -584l192 -584q2 -108 -168 -166q-84 -18 -120 2q-42 48 -66 144l-174 528q-16 34 -18 72zM574 708q-2 38 18 80l174 528q24 96 66 144q36 20 120 2q170 -58 168 -166l-192 -584l192 -584 q2 -108 -168 -166q-84 -18 -120 2q-42 48 -66 144l-174 528q-16 34 -18 72z" />
<glyph unicode="&#xac;" />
<glyph unicode="&#xad;" />
<glyph unicode="&#xae;" />
<glyph unicode="&#xaf;" />
<glyph unicode="&#xb0;" horiz-adv-x="1808" />
<glyph unicode="&#xb1;" />
<glyph unicode="&#xb2;" />
<glyph unicode="&#xb3;" />
<glyph unicode="&#xb4;" horiz-adv-x="1632" />
<glyph unicode="&#xb5;" />
<glyph unicode="&#xb6;" />
<glyph unicode="&#xb7;" />
<glyph unicode="&#xb8;" horiz-adv-x="1092" />
<glyph unicode="&#xb9;" />
<glyph unicode="&#xba;" />
<glyph unicode="&#xbb;" horiz-adv-x="1182" d="M62 128l192 584l-192 584q-2 108 168 166q84 18 120 -2q42 -48 66 -144l174 -528q20 -42 18 -80t-18 -72l-174 -528q-24 -96 -66 -144q-36 -20 -120 -2q-170 58 -168 166zM546 132l192 584l-192 584q-2 108 168 166q84 18 120 -2q42 -48 66 -144l174 -528q20 -42 18 -80 t-18 -72l-174 -528q-24 -96 -66 -144q-36 -20 -120 -2q-170 58 -168 166z" />
<glyph unicode="&#xbc;" />
<glyph unicode="&#xbd;" />
<glyph unicode="&#xbe;" />
<glyph unicode="&#xbf;" horiz-adv-x="1334" d="M114 548q2 82 72 140q54 42 158 82t114 94q0 58 26 100q32 26 108 28q210 -22 230 -128v-56q-10 -128 -80 -180q-88 -46 -172 -112q-26 -30 -14 -75t78 -65h60q74 2 108 48q12 98 56 180q40 26 92 26q172 -14 248 -78q28 -60 26 -158q-2 -72 -30 -195t-70 -183 q-76 -20 -164 -12q-96 10 -178 90q-70 -78 -192 -86h-92q-158 16 -255 120t-116 220t-13 200zM430 1252q0 78 58 133t140 55t140 -55t58 -133t-58 -133t-140 -55t-140 55t-58 133z" />
<glyph unicode="&#xc0;" horiz-adv-x="1652" />
<glyph unicode="&#xc1;" horiz-adv-x="1652" />
<glyph unicode="&#xc2;" horiz-adv-x="1652" />
<glyph unicode="&#xc3;" horiz-adv-x="1652" />
<glyph unicode="&#xc4;" horiz-adv-x="1652" />
<glyph unicode="&#xc5;" horiz-adv-x="1652" />
<glyph unicode="&#xc6;" horiz-adv-x="2166" />
<glyph unicode="&#xc7;" horiz-adv-x="1320" />
<glyph unicode="&#xc8;" horiz-adv-x="1470" />
<glyph unicode="&#xc9;" horiz-adv-x="1470" />
<glyph unicode="&#xca;" horiz-adv-x="1470" />
<glyph unicode="&#xcb;" horiz-adv-x="1470" />
<glyph unicode="&#xcc;" horiz-adv-x="960" />
<glyph unicode="&#xcd;" horiz-adv-x="1006" />
<glyph unicode="&#xce;" horiz-adv-x="962" />
<glyph unicode="&#xcf;" horiz-adv-x="960" />
<glyph unicode="&#xd0;" horiz-adv-x="1436" />
<glyph unicode="&#xd1;" horiz-adv-x="1796" />
<glyph unicode="&#xd2;" horiz-adv-x="1324" />
<glyph unicode="&#xd3;" horiz-adv-x="1324" />
<glyph unicode="&#xd4;" horiz-adv-x="1324" />
<glyph unicode="&#xd5;" horiz-adv-x="1324" />
<glyph unicode="&#xd6;" horiz-adv-x="1324" />
<glyph unicode="&#xd7;" horiz-adv-x="1008" d="M142 840q8 42 70 98q148 106 232 40l80 -96l44 38q76 66 140 80q42 -8 96 -72q104 -148 38 -232l-92 -76l34 -42q66 -76 82 -138q-8 -42 -88 -114q-130 -90 -214 -24l-80 96l-44 -38q-76 -66 -140 -80q-42 8 -112 90q-88 130 -22 214l92 76l-34 42q-66 76 -82 138z" />
<glyph unicode="&#xd8;" horiz-adv-x="1364" />
<glyph unicode="&#xd9;" horiz-adv-x="1656" />
<glyph unicode="&#xda;" horiz-adv-x="1656" />
<glyph unicode="&#xdb;" horiz-adv-x="1656" />
<glyph unicode="&#xdc;" horiz-adv-x="1656" />
<glyph unicode="&#xdd;" horiz-adv-x="1672" />
<glyph unicode="&#xde;" horiz-adv-x="1282" />
<glyph unicode="&#xdf;" horiz-adv-x="1310" />
<glyph unicode="&#xe0;" horiz-adv-x="1652" />
<glyph unicode="&#xe1;" horiz-adv-x="1652" />
<glyph unicode="&#xe2;" horiz-adv-x="1652" />
<glyph unicode="&#xe3;" horiz-adv-x="1652" />
<glyph unicode="&#xe4;" horiz-adv-x="1652" />
<glyph unicode="&#xe5;" horiz-adv-x="1652" />
<glyph unicode="&#xe6;" horiz-adv-x="2166" />
<glyph unicode="&#xe7;" horiz-adv-x="1320" />
<glyph unicode="&#xe8;" horiz-adv-x="1470" />
<glyph unicode="&#xe9;" horiz-adv-x="1470" />
<glyph unicode="&#xea;" horiz-adv-x="1470" />
<glyph unicode="&#xeb;" horiz-adv-x="1470" />
<glyph unicode="&#xec;" horiz-adv-x="960" />
<glyph unicode="&#xed;" horiz-adv-x="1006" />
<glyph unicode="&#xee;" horiz-adv-x="962" />
<glyph unicode="&#xef;" horiz-adv-x="960" />
<glyph unicode="&#xf0;" />
<glyph unicode="&#xf1;" horiz-adv-x="1796" />
<glyph unicode="&#xf2;" horiz-adv-x="1324" />
<glyph unicode="&#xf3;" horiz-adv-x="1324" />
<glyph unicode="&#xf4;" horiz-adv-x="1324" />
<glyph unicode="&#xf5;" horiz-adv-x="1324" />
<glyph unicode="&#xf6;" horiz-adv-x="1324" />
<glyph unicode="&#xf7;" horiz-adv-x="1036" d="M102 628q22 180 128 198l524 -22q100 -4 156 -34q26 -34 24 -142q-22 -156 -128 -174l-524 22q-100 4 -156 34q-26 34 -24 118zM292 212q0 78 58 133t140 55t140 -55t58 -133t-58 -133t-140 -55t-140 55t-58 133zM336 1080q0 78 58 133t140 55t140 -55t58 -133t-58 -133 t-140 -55t-140 55t-58 133z" />
<glyph unicode="&#xf8;" horiz-adv-x="1364" />
<glyph unicode="&#xf9;" horiz-adv-x="1656" />
<glyph unicode="&#xfa;" horiz-adv-x="1656" />
<glyph unicode="&#xfb;" horiz-adv-x="1656" />
<glyph unicode="&#xfc;" horiz-adv-x="1656" />
<glyph unicode="&#xfd;" horiz-adv-x="1672" />
<glyph unicode="&#xfe;" horiz-adv-x="1282" />
<glyph unicode="&#xff;" horiz-adv-x="1672" />
<glyph unicode="&#x152;" horiz-adv-x="1898" d="M80 532v176q8 188 47 342t145 263t312 115h68q122 -10 170 -138q0 64 25 98t65 40h300q138 -14 186 -142q0 64 38 114q58 32 164 26t182 -76q36 -30 24 -116q-8 -124 -37 -244t-77 -172q-52 -20 -169 -5t-157 49q-36 50 -26 122q-14 56 -56 76h-56l-28 -256l184 -20 q100 -6 156 -38q26 -34 22 -110q-24 -148 -132 -164l-258 16l-12 -128l308 2q136 0 180 -22q28 -32 28 -108q-18 -210 -124 -232h-600q-56 6 -80 32q-52 -24 -120 -32h-248q-184 2 -292 145t-132 387zM508 532q16 -138 84 -172h48q48 4 96 94l18 368l10 166q-18 74 -76 72 h-24q-70 -6 -108 -88t-48 -272v-168z" />
<glyph unicode="&#x153;" horiz-adv-x="1898" d="M80 532v176q8 188 47 342t145 263t312 115h68q122 -10 170 -138q0 64 25 98t65 40h300q138 -14 186 -142q0 64 38 114q58 32 164 26t182 -76q36 -30 24 -116q-8 -124 -37 -244t-77 -172q-52 -20 -169 -5t-157 49q-36 50 -26 122q-14 56 -56 76h-56l-28 -256l184 -20 q100 -6 156 -38q26 -34 22 -110q-24 -148 -132 -164l-258 16l-12 -128l308 2q136 0 180 -22q28 -32 28 -108q-18 -210 -124 -232h-600q-56 6 -80 32q-52 -24 -120 -32h-248q-184 2 -292 145t-132 387zM508 532q16 -138 84 -172h48q48 4 96 94l18 368l10 166q-18 74 -76 72 h-24q-70 -6 -108 -88t-48 -272v-168z" />
<glyph unicode="&#x178;" horiz-adv-x="1672" />
<glyph unicode="&#x2c6;" horiz-adv-x="1616" />
<glyph unicode="&#x2dc;" horiz-adv-x="1840" />
<glyph unicode="&#x2000;" horiz-adv-x="998" />
<glyph unicode="&#x2001;" horiz-adv-x="1996" />
<glyph unicode="&#x2002;" horiz-adv-x="998" />
<glyph unicode="&#x2003;" horiz-adv-x="1996" />
<glyph unicode="&#x2004;" horiz-adv-x="665" />
<glyph unicode="&#x2005;" horiz-adv-x="499" />
<glyph unicode="&#x2006;" horiz-adv-x="332" />
<glyph unicode="&#x2007;" horiz-adv-x="332" />
<glyph unicode="&#x2008;" horiz-adv-x="249" />
<glyph unicode="&#x2009;" horiz-adv-x="399" />
<glyph unicode="&#x200a;" horiz-adv-x="110" />
<glyph unicode="&#x2010;" horiz-adv-x="1036" d="M102 628q22 180 128 198l524 -22q100 -4 156 -34q26 -34 24 -142q-22 -156 -128 -174l-524 22q-100 4 -156 34q-26 34 -24 118z" />
<glyph unicode="&#x2011;" horiz-adv-x="1036" d="M102 628q22 180 128 198l524 -22q100 -4 156 -34q26 -34 24 -142q-22 -156 -128 -174l-524 22q-100 4 -156 34q-26 34 -24 118z" />
<glyph unicode="&#x2012;" horiz-adv-x="1036" d="M102 628q22 180 128 198l524 -22q100 -4 156 -34q26 -34 24 -142q-22 -156 -128 -174l-524 22q-100 4 -156 34q-26 34 -24 118z" />
<glyph unicode="&#x2013;" />
<glyph unicode="&#x2014;" />
<glyph unicode="&#x2018;" horiz-adv-x="570" d="M76 1250q12 174 82 309t166 116t136 -53q38 -48 28 -130q-16 -160 -44 -296q-8 -64 -54 -112q-58 -32 -148 -20t-142 70q-28 36 -24 116z" />
<glyph unicode="&#x2019;" horiz-adv-x="570" d="M82 1244q16 160 44 296q8 64 54 112q58 32 148 20t142 -70q28 -36 24 -116q-12 -174 -82 -309t-166 -116t-136 53q-38 48 -28 130z" />
<glyph unicode="&#x201a;" horiz-adv-x="570" d="M82 -56q16 160 44 296q8 64 54 112q58 32 148 20t142 -70q28 -36 24 -116q-12 -174 -82 -309t-166 -116t-136 53q-38 48 -28 130z" />
<glyph unicode="&#x201c;" horiz-adv-x="846" d="M76 1242q12 174 82 309t129 123t93 -52q38 -48 28 -130q-16 -160 -44 -296q-8 -64 -54 -112q-58 -32 -108 -24t-102 66q-28 36 -24 116zM432 1242q12 174 82 309t129 123t93 -52q38 -48 28 -130q-16 -160 -44 -296q-8 -64 -54 -112q-58 -32 -108 -24t-102 66 q-28 36 -24 116z" />
<glyph unicode="&#x201d;" horiz-adv-x="846" d="M82 1244q16 160 44 296q8 64 54 112q58 32 108 24t102 -66q28 -36 24 -116q-12 -174 -82 -309t-129 -123t-93 52q-38 48 -28 130zM438 1244q16 160 44 296q8 64 54 112q58 32 108 24t102 -66q28 -36 24 -116q-12 -174 -82 -309t-129 -123t-93 52q-38 48 -28 130z" />
<glyph unicode="&#x201e;" horiz-adv-x="846" d="M82 -60q16 160 44 296q8 64 54 112q58 32 108 24t102 -66q28 -36 24 -116q-12 -174 -82 -309t-129 -123t-93 52q-38 48 -28 130zM438 -60q16 160 44 296q8 64 54 112q58 32 108 24t102 -66q28 -36 24 -116q-12 -174 -82 -309t-129 -123t-93 52q-38 48 -28 130z" />
<glyph unicode="&#x2022;" horiz-adv-x="620" d="M100 708q0 82 62 141t148 59t148 -59t62 -141t-62 -141t-148 -59t-148 59t-62 141z" />
<glyph unicode="&#x2026;" horiz-adv-x="1564" d="M100 708q0 78 58 133t140 55t140 -55t58 -133t-58 -133t-140 -55t-140 55t-58 133zM584 708q0 78 58 133t140 55t140 -55t58 -133t-58 -133t-140 -55t-140 55t-58 133zM1068 708q0 78 58 133t140 55t140 -55t58 -133t-58 -133t-140 -55t-140 55t-58 133z" />
<glyph unicode="&#x202f;" horiz-adv-x="399" />
<glyph unicode="&#x2039;" horiz-adv-x="698" d="M90 712q-2 38 18 80l174 528q24 96 66 144q36 20 120 2q170 -58 168 -166l-192 -584l192 -584q2 -108 -168 -166q-84 -18 -120 2q-42 48 -66 144l-174 528q-16 34 -18 72z" />
<glyph unicode="&#x203a;" horiz-adv-x="698" d="M62 132l192 584l-192 584q-2 108 168 166q84 18 120 -2q42 -48 66 -144l174 -528q20 -42 18 -80t-18 -72l-174 -528q-24 -96 -66 -144q-36 -20 -120 -2q-170 58 -168 166z" />
<glyph unicode="&#x205f;" horiz-adv-x="499" />
<glyph unicode="&#x20ac;" horiz-adv-x="1510" d="M92 570q18 66 124 80l34 -2v60q2 42 6 84q-72 4 -116 22q-28 34 -24 92q18 66 124 80l42 -2q6 34 16 66q38 154 144 263t312 115h68q122 -10 170 -138q0 64 38 114q58 32 164 26t182 -76q34 -40 24 -116q-8 -132 -35 -306t-79 -230q-52 -20 -169 -5t-157 49 q-50 64 -38 160l12 82q-18 74 -76 72h-24q-70 -6 -108 -88v-2q78 -4 126 -22q26 -26 22 -58q-16 -100 -122 -114l-68 2q-4 -36 -6 -78v-64q96 -2 150 -24q26 -26 22 -58q-16 -100 -122 -114h-30q22 -60 64 -80h48q62 6 124 152q46 48 100 40q94 8 258 -92q38 -40 26 -96 q-52 -136 -159 -245t-241 -119h-244q-184 2 -292 146q-90 118 -122 308q-92 4 -144 24q-28 34 -24 92z" />
<glyph unicode="&#x2122;" />
<glyph unicode="&#x25fc;" horiz-adv-x="1430" d="M0 0v1430h1430v-1430h-1430z" />
</font>
</defs>
</svg>
